<?xml version="1.0" encoding="utf-8"?>
<!-- Generator: Adobe Illustrator 28.0.0, SVG Export Plug-In . SVG Version: 6.00 Build 0)  -->
<svg version="1.1" id="Layer_1" xmlns="http://www.w3.org/2000/svg" xmlns:xlink="http://www.w3.org/1999/xlink" x="0px"
	y="0px" viewBox="0 0 1920 1920" style="enable-background:new 0 0 1920 1920;" xml:space="preserve">

	<g class="IndiGrup" id="IndiGrup">

		<g class="colorkey">
			<path class="keyTop colorkey" id="keyTop" d="M1915,370.5l0,588.9h-129.9l0-438.8c0-18.3,8.7-38.1,21.3-50.8l-0.8-0.8c-12.6,12.7-32.3,21.4-50.4,21.4l-427.9,0V370.5
		L1915,370.5z" />

		</g>
		<g class="LAB" id="LAB">
			<path
				d="M1033.4,1549.5V1250h70.6v218.6c0,9.8-4.7,20.5-11.5,27.4l0.4,0.4c6.8-6.8,17.5-11.5,27.4-11.5h161.3v64.6H1033.4z" />
			<path d="M1414.9,1250h91.1l112.9,299.4h-75.7l-24-56.5h-118.9l-21.8,56.5H1302L1414.9,1250z M1419.2,1435.2
			c32.9,0,47.5-0.4,61.2,4.3c13.7,4.3,25.7,25.2,35.9,43.2l-56.9-152.7L1419.2,1435.2z" />
			<path d="M1638.2,1549.5V1250h154.4c65,0,106.9,22.7,106.9,74.9c0,14.5-12.8,34.6-39.4,45.8c-6.4,3-15.8,3.8-23.1,4.3v0.9
			c7.3-0.4,16.7-0.4,23.5,1.7c41.5,11.5,54.3,37.6,54.3,81.7c0,63.7-41.1,90.3-109.5,90.3H1638.2z M1709.2,1374.1h97.1
			c24.8,0,36.8-9.4,36.8-30.8c0-21.4-20.5-30.4-43.2-30.4h-90.7V1374.1z M1709.2,1485.3h103.1c21,0,36.8-11.5,36.8-31.2
			c0-16.7-12.4-27.4-32.9-27.4h-106.9V1485.3z" />
		</g>
		<g class="INDI" id="INDI">
			<path d="M5,370.5h130.7v554.6H5V370.5z" />
			<path d="M183.3,370.5h136.3l264.6,331.2c13.5,16.6,26.1,41.2,33.3,61.8l1.6-0.8c-7.1-19.8-12.7-47.5-12.7-68.9V370.5h130.7v554.6
			H600.8L337,596.4c-13.5-16.6-26.9-42-34.1-61.8h-1.6c7.1,20.6,12.7,48.3,12.7,69.7v320.9H183.3V370.5z" />
			<path d="M279.2,992.5c154.5,0,282.1,88.7,282.1,277.3s-127.6,277.3-282.1,277.3H5V992.5H279.2z M136.5,1138.3
			c0,22.2,0,182.2,0,289.2h153.7c57,0,139.5-46.7,139.5-157.7c0-107-81.6-157.7-139.5-157.7h-229
			C90.6,1112.2,136.5,1113.7,136.5,1138.3z" />
			<path d="M608,992.5h130.7v554.6H608V992.5z" />
		</g>
	</g>
</svg>