<?xml version="1.0" encoding="utf-8"?>
<!-- Generator: Adobe Illustrator 28.0.0, SVG Export Plug-In . SVG Version: 6.00 Build 0)  -->
<svg version="1.1" id="Layer_1" xmlns="http://www.w3.org/2000/svg" xmlns:xlink="http://www.w3.org/1999/xlink" x="0px"
	y="0px" viewBox="0 0 1920 1920" style="enable-background:new 0 0 1920 1920;" xml:space="preserve">
	<g class="IndiGrup" id="IndiGrup">

		<g class="colorkey">

			<path class="keyButton" id="keyButton"
				d="M5,1915l0-477.9h111.7l0,348.9c0,15.7-7.4,32.8-18.3,43.7l0.7,0.7c10.8-10.9,27.7-18.4,43.3-18.4h340.5V1915H5z" />
			<path class="keyTop" id="keyTop"
				d="M1915,5l0,477.9l-111.7,0l0-348.9c0-15.7,7.4-32.8,18.3-43.7l-0.7-0.7c-10.8,10.9-27.7,18.4-43.3,18.4l-340.5,0V5L1915,5z" />

		</g>

		<g class="LAB" id="LAB">
			<path
				d="M916.8,1915v-339h79.9v247.5c0,11.1-5.3,23.2-13.1,31l0.5,0.5c7.7-7.7,19.9-13.1,31-13.1h182.6v73.1H916.8z" />
			<path d="M1348.8,1576H1452l127.9,339h-85.7l-27.1-63.9h-134.6l-24.7,63.9H1221L1348.8,1576z M1353.7,1785.7
			c37.3,0,53.8-0.5,69.3,4.8c15.5,4.8,29.1,28.6,40.7,48.9l-64.4-172.9L1353.7,1785.7z" />
			<path d="M1601.6,1915v-339h174.8c73.6,0,121.1,25.7,121.1,84.8c0,16.5-14.5,39.2-44.6,51.8c-7.3,3.4-17.9,4.4-26.2,4.8v1
			c8.2-0.5,18.9-0.5,26.6,1.9c47,13.1,61.5,42.6,61.5,92.5c0,72.2-46.5,102.2-124,102.2H1601.6z M1682,1716.4H1792
			c28.1,0,41.7-10.7,41.7-34.9s-23.2-34.4-48.9-34.4H1682V1716.4z M1682,1842.3h116.7c23.7,0,41.7-13.1,41.7-35.4
			c0-18.9-14-31-37.3-31H1682V1842.3z" />
		</g>
		<g class="INDI" id="INDI">
			<path d="M5,5h79.9v339H5V5z" />
			<path d="M114,5h83.3L359,207.5c8.2,10.2,16,25.2,20.3,37.8l1-0.5c-4.4-12.1-7.7-29.1-7.7-42.1V5h79.9v339h-83.3L207.9,143
			c-8.2-10.2-16.5-25.7-20.8-37.8h-1c4.4,12.6,7.7,29.5,7.7,42.6V344H114V5z" />
			<path d="M172.6,385.2c94.4,0,172.4,54.2,172.4,169.5s-78,169.5-172.4,169.5H5v-339H172.6z M85.4,474.3c0,13.6,0,111.4,0,176.8h94
			c34.9,0,85.2-28.6,85.2-96.4c0-65.4-49.9-96.4-85.2-96.4h-140C57.3,458.3,85.4,459.3,85.4,474.3z" />
			<path d="M373.6,385.2h79.9v339h-79.9V385.2z" />
		</g>
	</g>
</svg>