<?xml version="1.0" encoding="utf-8"?>
<!-- Generator: Adobe Illustrator 28.0.0, SVG Export Plug-In . SVG Version: 6.00 Build 0)  -->
<svg version="1.1" id="Layer_1" xmlns="http://www.w3.org/2000/svg" xmlns:xlink="http://www.w3.org/1999/xlink" x="0px" y="0px"
	 viewBox="0 0 1920 1920" style="enable-background:new 0 0 1920 1920;" xml:space="preserve">


<g class="IndiGrup" id="IndiGrup">
	<g class="LAB" id="LAB">
		<path d="M1199.9,1679.1h49v182c0,3.9-0.9,7.8-2.7,11.8c-1.8,4-4.1,7.4-6.9,10.1l0.7,0.3c2.7-2.7,6.1-5,10.1-6.7
			c4-1.7,7.9-2.6,11.8-2.6h126.5v44.9h-188.5V1679.1z"/>
		<path d="M1521.1,1679.1h64.8l90.5,239.9H1624l-19.9-49.4l-101.8,0.3l-18.9,49h-52.8L1521.1,1679.1z M1548.6,1829.2
			c8,0,15.1,0.8,21.2,2.4c5.9,1.6,11.7,5.3,17.1,11.1c5.5,5.8,10.5,12.6,15.1,20.4l-49.4-131.3l-36.7,97.3H1548.6z"/>
		<path d="M1883.5,1693.7c15.1,9.7,22.6,25.1,22.6,46.1c0,2.7-0.6,5.8-1.9,9.1c-1.3,3.3-3.1,6.7-5.7,10.1c-2.5,3.4-5.7,6.7-9.4,9.9
			c-3.8,3.2-8.3,6.1-13.5,8.6c-2.5,1.1-5.5,1.9-8.9,2.4s-6.6,0.8-9.6,1l0.3,0.7c2.7-0.2,5.8-0.3,9.3-0.2c3.4,0.1,6.5,0.5,9.3,1.2
			c16.2,4.3,27.5,12.1,33.9,23.1c6.4,11.1,9.6,24.7,9.6,41c0,25.6-7.8,44-23.3,55.3c-15.5,11.3-37,17-64.4,17h-125.4v-239.9h115.2
			C1847.7,1679.1,1868.4,1684,1883.5,1693.7z M1834.1,1780.2c11.2,0,19.4-2.4,24.5-7.2c5.1-4.8,7.7-12,7.7-21.6c0-5-1.1-9.4-3.3-13
			c-2.2-3.7-5.1-6.6-8.9-8.9c-3.8-2.3-8.1-3.9-12.9-5c-4.8-1-9.8-1.5-15.1-1.5h-70.9v57.2H1834.1z M1836.2,1874.1
			c10.3,0,19.1-2.6,26.4-7.7c7.3-5.1,11-12.9,11-23.1c0-8.2-2.9-14.6-8.6-19c-5.7-4.5-13.7-6.7-24-6.7h-85.7v56.5H1836.2z"/>
	</g>
	<g class="INDI" id="INDI"> 
	
			<path d="M0.5,1h79.7v338H0.5V1z"/>
			<path d="M109.2,1h83.1l161.3,201.8c8.2,10.1,15.9,25.1,20.3,37.7l1-0.5c-4.3-12.1-7.7-29-7.7-42V1h79.7v338h-83.1L202.8,138.6
				c-8.2-10.1-16.4-25.6-20.8-37.7h-1c4.3,12.6,7.7,29.5,7.7,42.5V339h-79.7V1z"/>
		<path d="M167.6,382c94.2,0,171.9,54.1,171.9,169s-77.7,169-171.9,169H0.5V382H167.6z M80.7,470.9c0,13.5,0,111.1,0,176.2h93.7
			c34.8,0,85-28.5,85-96.1c0-65.2-49.7-96.1-85-96.1H34.8C52.7,454.9,80.7,455.9,80.7,470.9z"/>
		<path d="M368,382h79.7v338H368V382z"/>
	</g>
	<g class="colorkey">

	<path class="keyTop" id="keyTop" d="M1919.5,1l0,479.9l-112.1,0l0-350.3c0-15.8,7.5-32.9,18.3-43.9L1825,86c-10.9,11-27.9,18.5-43.5,18.5l-342,0V1L1919.5,1z"/>

	<path class="keyButton" id="keyButton" d="M0.5,1919l0-479.9h112.1l0,350.3c0,15.8-7.5,32.9-18.3,43.9l0.7,0.7c10.9-11,27.9-18.5,43.5-18.5h342V1919H0.5z"/>
		</g>

</g>
</svg>
