<?xml version="1.0" encoding="utf-8"?>
<!-- Generator: Adobe Illustrator 28.0.0, SVG Export Plug-In . SVG Version: 6.00 Build 0)  -->
<svg version="1.1" id="Layer_1" xmlns="http://www.w3.org/2000/svg" xmlns:xlink="http://www.w3.org/1999/xlink" x="0px"
	y="0px" viewBox="0 0 1920 1013" style="enable-background:new 0 0 1920 1013;" xml:space="preserve">
	<!-- <style type="text/css">
		.indiwhite {
			fill: #EFEFEF;
		}

		.indiorange {
			fill: #F86230;
		}
	</style> -->
	<a xlink:href="#" class="menu__item" data-scrollto="0">
		<g id="grupoGeneral">
			<g>
				<g id="logoX">
					<path class="indiwhite" d="M920.3,878.9l95.3,125.6h-67.1l-61.3-81.1l-59.2,81.1h-67.1l94.4-122.6l-95.9-126.5h67.1l35.1,46.3l11,14.6
			c0.2,0.3,0.4,0.5,0.6,0.7c11.4,13.2,24.3,9.6,39.2-11.3l37.2-50.2h67.1l-58.7,75.8c-1.6,2-3.2,3.9-4.8,5.7l-22.9,29.3
			c-5,6.5-14.8,6.4-19.8-0.1L920.3,878.9z" />
					<polyline class="indiwhite" points="873,816.9 861.4,801.6 854.6,792.7 		" />
					<line class="indiwhite" x1="982.4" y1="799.4" x2="953.1" y2="836.8" />
				</g>
			</g>

			<g id="indi">
				<path class="indiwhite" d="M20,7.9h58.9v249.8H20V7.9z" />
				<path class="indiwhite" d="M100.3,7.9h61.4L280.9,157c6.1,7.5,11.8,18.6,15,27.8l0.7-0.4c-3.2-8.9-5.7-21.4-5.7-31V7.9h58.9v249.8h-61.4
			L169.5,109.6c-6.1-7.5-12.1-18.9-15.3-27.8h-0.7c3.2,9.3,5.7,21.8,5.7,31.4v144.5h-58.9V7.9z" />

				<path class="indiwhite" d="M143.5,289.5c69.6,0,127,40,127,124.9s-57.5,124.9-127,124.9H20V289.5H143.5z M79.2,355.1c0,10,0,82.1,0,130.3
		h69.2c25.7,0,62.8-21.1,62.8-71c0-48.2-36.8-71-62.8-71H45.3C58.5,343.3,79.2,344.1,79.2,355.1z" />
				<path class="indiwhite" d="M291.6,289.5h58.9v249.8h-58.9V289.5z" />
			</g>


			<g id="cornerTL">
				<polygon class="indiorange"
					points="269.8,945.6 269.8,1004.5 20,1004.5 20,754.7 78.9,754.7 78.9,945.6" />
			</g>


			<g id="cornerBR">

				<polygon class="indiorange"
					points="766.8,93.2 766.8,34.4 1016.6,34.4 1016.6,284.2 957.8,284.2 957.8,93.2 " />
			</g>






			<g>
				<g id="laboratorio">

					<path class="indiwhite" d="M1088.8,908.7h-12.3v-58.9h12.3V908.7z" />
					<path class="indiwhite" d="M1132.3,908.7h-11.6V903h-0.2c-2.7,4.5-6.6,6.7-11.8,6.7c-3.9,0-6.9-1.1-9.1-3.3c-2.2-2.2-3.3-5.1-3.3-8.8
			c0-7.7,4.6-12.2,13.7-13.4l10.8-1.4c0-4.3-2.4-6.5-7.1-6.5c-4.7,0-9.2,1.4-13.5,4.2v-9.2c1.7-0.9,4-1.7,7-2.3s5.7-1,8.1-1
			c11.3,0,17,5.7,17,17V908.7z M1120.7,892.6v-2.7l-7.2,0.9c-4,0.5-6,2.3-6,5.4c0,1.4,0.5,2.5,1.5,3.4c1,0.9,2.3,1.3,3.9,1.3
			c2.3,0,4.2-0.8,5.6-2.4C1120,897,1120.7,895,1120.7,892.6z" />
					<path class="indiwhite" d="M1154.4,904.1h-0.2v4.6H1142v-58.9h12.3v25.1h0.2c3-4.6,7.3-7,12.9-7c5.1,0,9.1,1.8,11.8,5.3
			c2.8,3.5,4.2,8.3,4.2,14.4c0,6.6-1.6,12-4.9,16c-3.2,4-7.6,6-13,6C1160.6,909.7,1156.9,907.8,1154.4,904.1z M1154.1,887.3v4.1
			c0,2.6,0.7,4.7,2.2,6.4c1.5,1.7,3.4,2.5,5.7,2.5c2.8,0,5-1.1,6.5-3.2s2.3-5.2,2.3-9.2c0-3.3-0.7-5.9-2.1-7.7s-3.4-2.8-6-2.8
			c-2.5,0-4.5,0.9-6.1,2.8C1154.9,882,1154.1,884.4,1154.1,887.3z" />
					<path class="indiwhite" d="M1210.3,909.7c-6.6,0-11.8-1.9-15.6-5.6c-3.8-3.7-5.7-8.8-5.7-15.1c0-6.6,2-11.7,5.9-15.4
			c3.9-3.7,9.3-5.6,16-5.6c6.6,0,11.8,1.9,15.5,5.6c3.8,3.7,5.6,8.6,5.6,14.7c0,6.6-1.9,11.8-5.8,15.7S1217,909.7,1210.3,909.7z
			 M1210.6,877.4c-2.9,0-5.2,1-6.8,3c-1.6,2-2.4,4.8-2.4,8.5c0,7.6,3.1,11.5,9.2,11.5c5.9,0,8.8-3.9,8.8-11.8
			C1219.5,881.1,1216.5,877.4,1210.6,877.4z" />
					<path class="indiwhite" d="M1265.9,880c-1.5-0.8-3.2-1.2-5.2-1.2c-2.7,0-4.8,1-6.3,2.9c-1.5,2-2.3,4.6-2.3,8v19h-12.3v-39.8h12.3v7.4
			h0.2c1.9-5.4,5.4-8.1,10.5-8.1c1.3,0,2.3,0.2,3,0.5V880z" />
					<path class="indiwhite" d="M1304.7,908.7h-11.6V903h-0.2c-2.7,4.5-6.6,6.7-11.8,6.7c-3.9,0-6.9-1.1-9.1-3.3c-2.2-2.2-3.3-5.1-3.3-8.8
			c0-7.7,4.6-12.2,13.7-13.4l10.8-1.4c0-4.3-2.4-6.5-7.1-6.5c-4.7,0-9.2,1.4-13.5,4.2v-9.2c1.7-0.9,4-1.7,7-2.3s5.7-1,8.1-1
			c11.3,0,17,5.7,17,17V908.7z M1293.1,892.6v-2.7l-7.2,0.9c-4,0.5-6,2.3-6,5.4c0,1.4,0.5,2.5,1.5,3.4c1,0.9,2.3,1.3,3.9,1.3
			c2.3,0,4.2-0.8,5.6-2.4C1292.4,897,1293.1,895,1293.1,892.6z" />
					<path class="indiwhite" d="M1338.4,908.3c-1.8,1-4.5,1.4-8.2,1.4c-8.6,0-13-4.5-13-13.5V878h-6.4v-9h6.4v-8.6l12.2-3.5v12.1h8.9v9h-8.9
			v16.1c0,4.1,1.6,6.2,4.9,6.2c1.3,0,2.6-0.4,4-1.1V908.3z" />
					<path class="indiwhite" d="M1364,909.7c-6.6,0-11.8-1.9-15.6-5.6c-3.8-3.7-5.7-8.8-5.7-15.1c0-6.6,2-11.7,5.9-15.4
			c3.9-3.7,9.3-5.6,16-5.6c6.6,0,11.8,1.9,15.5,5.6c3.8,3.7,5.6,8.6,5.6,14.7c0,6.6-1.9,11.8-5.8,15.7S1370.7,909.7,1364,909.7z
			 M1364.3,877.4c-2.9,0-5.2,1-6.8,3c-1.6,2-2.4,4.8-2.4,8.5c0,7.6,3.1,11.5,9.2,11.5c5.9,0,8.8-3.9,8.8-11.8
			C1373.2,881.1,1370.2,877.4,1364.3,877.4z" />
					<path class="indiwhite" d="M1419.6,880c-1.5-0.8-3.2-1.2-5.2-1.2c-2.7,0-4.8,1-6.3,2.9c-1.5,2-2.3,4.6-2.3,8v19h-12.3v-39.8h12.3v7.4
			h0.2c1.9-5.4,5.4-8.1,10.5-8.1c1.3,0,2.3,0.2,3,0.5V880z" />
					<path class="indiwhite" d="M1431.8,862.7c-2.1,0-3.8-0.6-5.1-1.8c-1.3-1.2-2-2.7-2-4.5c0-1.8,0.7-3.3,2-4.5c1.3-1.2,3-1.7,5.1-1.7
			c2.1,0,3.8,0.6,5.1,1.7c1.3,1.2,2,2.7,2,4.5c0,1.9-0.7,3.4-2,4.6C1435.6,862.1,1433.9,862.7,1431.8,862.7z M1437.9,908.7h-12.3
			v-39.8h12.3V908.7z" />
					<path class="indiwhite" d="M1467.2,909.7c-6.6,0-11.8-1.9-15.6-5.6c-3.8-3.7-5.7-8.8-5.7-15.1c0-6.6,2-11.7,5.9-15.4
			c3.9-3.7,9.3-5.6,16-5.6c6.6,0,11.8,1.9,15.5,5.6c3.8,3.7,5.6,8.6,5.6,14.7c0,6.6-1.9,11.8-5.8,15.7S1473.9,909.7,1467.2,909.7z
			 M1467.5,877.4c-2.9,0-5.2,1-6.8,3c-1.6,2-2.4,4.8-2.4,8.5c0,7.6,3.1,11.5,9.2,11.5c5.9,0,8.8-3.9,8.8-11.8
			C1476.4,881.1,1473.4,877.4,1467.5,877.4z" />
					<path class="indiwhite" d="M1557.7,908.7h-12.3v-5.5h-0.2c-2.8,4.3-6.9,6.4-12.3,6.4c-5,0-9-1.8-12-5.3c-3-3.5-4.5-8.4-4.5-14.7
			c0-6.6,1.7-11.8,5-15.8c3.3-4,7.7-5.9,13.1-5.9c5.1,0,8.7,1.8,10.7,5.5h0.2v-23.7h12.3V908.7z M1545.7,889.4v-3
			c0-2.6-0.8-4.7-2.3-6.4s-3.5-2.6-5.9-2.6c-2.7,0-4.8,1.1-6.4,3.2c-1.5,2.1-2.3,5.1-2.3,8.8c0,3.5,0.7,6.2,2.2,8.1s3.5,2.8,6.1,2.8
			c2.5,0,4.5-1,6.1-3C1544.9,895.3,1545.7,892.7,1545.7,889.4z" />
					<path class="indiwhite" d="M1603.8,892.3h-25.9c0.4,5.8,4.1,8.7,10.9,8.7c4.4,0,8.2-1,11.5-3.1v8.9c-3.7,2-8.5,3-14.3,3
			c-6.4,0-11.4-1.8-15-5.3c-3.5-3.6-5.3-8.5-5.3-14.9c0-6.6,1.9-11.8,5.7-15.7s8.5-5.8,14.1-5.8c5.8,0,10.3,1.7,13.5,5.2
			s4.8,8.1,4.8,14V892.3z M1592.4,884.8c0-5.7-2.3-8.5-6.9-8.5c-2,0-3.7,0.8-5.1,2.4c-1.4,1.6-2.3,3.7-2.6,6.1H1592.4z" />
					<path class="indiwhite" d="M1082.8,958.1c-2.1,0-3.8-0.6-5.1-1.8c-1.3-1.2-2-2.7-2-4.5c0-1.8,0.7-3.3,2-4.5c1.3-1.2,3-1.7,5.1-1.7
			c2.1,0,3.8,0.6,5.1,1.7c1.3,1.2,2,2.7,2,4.5c0,1.9-0.7,3.4-2,4.6C1086.6,957.5,1084.9,958.1,1082.8,958.1z M1088.8,1004.2h-12.3
			v-39.8h12.3V1004.2z" />
					<path class="indiwhite" d="M1137.6,1004.2h-12.2v-22.1c0-6.2-2.2-9.2-6.6-9.2c-2.1,0-3.9,0.8-5.2,2.4c-1.4,1.6-2.1,3.7-2.1,6.2v22.7
			h-12.3v-39.8h12.3v6.3h0.2c2.9-4.8,7.2-7.3,12.8-7.3c8.8,0,13.2,5.5,13.2,16.4V1004.2z" />
					<path class="indiwhite" d="M1185.7,1004.2h-12.2v-22.1c0-6.2-2.2-9.2-6.6-9.2c-2.1,0-3.9,0.8-5.2,2.4c-1.4,1.6-2.1,3.7-2.1,6.2v22.7
			h-12.3v-39.8h12.3v6.3h0.2c2.9-4.8,7.2-7.3,12.8-7.3c8.8,0,13.2,5.5,13.2,16.4V1004.2z" />
					<path class="indiwhite" d="M1214.4,1005.1c-6.6,0-11.8-1.9-15.6-5.6c-3.8-3.7-5.7-8.8-5.7-15.1c0-6.6,2-11.7,5.9-15.4
			c3.9-3.7,9.3-5.6,16-5.6c6.6,0,11.8,1.9,15.5,5.6c3.8,3.7,5.6,8.6,5.6,14.7c0,6.6-1.9,11.8-5.8,15.7S1221.1,1005.1,1214.4,1005.1z
			 M1214.7,972.8c-2.9,0-5.2,1-6.8,3c-1.6,2-2.4,4.8-2.4,8.5c0,7.6,3.1,11.5,9.2,11.5c5.9,0,8.8-3.9,8.8-11.8
			C1223.6,976.5,1220.6,972.8,1214.7,972.8z" />
					<path class="indiwhite" d="M1281.9,964.4l-14.8,39.8h-14l-14.1-39.8h13.1l6.9,24.5c0.8,2.8,1.2,5.1,1.4,7.1h0.2c0.2-1.8,0.7-4.1,1.4-6.8
			l7.1-24.7H1281.9z" />
					<path class="indiwhite" d="M1319.1,1004.2h-11.6v-5.7h-0.2c-2.7,4.5-6.6,6.7-11.8,6.7c-3.9,0-6.9-1.1-9.1-3.3s-3.3-5.1-3.3-8.8
			c0-7.7,4.6-12.2,13.7-13.4l10.8-1.4c0-4.4-2.4-6.5-7.1-6.5c-4.7,0-9.2,1.4-13.5,4.2v-9.2c1.7-0.9,4-1.7,7-2.3c3-0.7,5.7-1,8.1-1
			c11.3,0,17,5.7,17,17V1004.2z M1307.5,988v-2.7l-7.2,0.9c-4,0.5-6,2.3-6,5.4c0,1.4,0.5,2.5,1.5,3.4c1,0.9,2.3,1.3,3.9,1.3
			c2.3,0,4.2-0.8,5.6-2.4C1306.8,992.5,1307.5,990.5,1307.5,988z" />
					<path class="indiwhite" d="M1358.9,1002.7c-2.8,1.6-6.8,2.4-12,2.4c-6.1,0-11.1-1.8-14.8-5.6c-3.8-3.7-5.7-8.5-5.7-14.3
			c0-6.8,2-12.1,6.1-16c4.1-3.9,9.5-5.8,16.3-5.8c4.7,0,8.1,0.6,10.2,1.9v10.4c-2.6-1.9-5.4-2.9-8.6-2.9c-3.5,0-6.3,1-8.4,3.1
			s-3.1,4.9-3.1,8.5c0,3.5,1,6.3,3,8.3c2,2,4.7,3,8.1,3c3.1,0,6-1,9-2.9V1002.7z" />
					<path class="indiwhite" d="M1373.2,958.1c-2.1,0-3.8-0.6-5.1-1.8c-1.3-1.2-2-2.7-2-4.5c0-1.8,0.7-3.3,2-4.5c1.3-1.2,3-1.7,5.1-1.7
			c2.1,0,3.8,0.6,5.1,1.7c1.3,1.2,2,2.7,2,4.5c0,1.9-0.7,3.4-2,4.6C1377,957.5,1375.3,958.1,1373.2,958.1z M1379.2,1004.2h-12.3
			v-39.8h12.3V1004.2z" />
					<path class="indiwhite" d="M1408.5,1005.1c-6.6,0-11.8-1.9-15.6-5.6c-3.8-3.7-5.7-8.8-5.7-15.1c0-6.6,2-11.7,5.9-15.4
			c3.9-3.7,9.3-5.6,16-5.6c6.6,0,11.8,1.9,15.5,5.6c3.8,3.7,5.6,8.6,5.6,14.7c0,6.6-1.9,11.8-5.8,15.7S1415.2,1005.1,1408.5,1005.1z
			 M1408.8,972.8c-2.9,0-5.2,1-6.8,3c-1.6,2-2.4,4.8-2.4,8.5c0,7.6,3.1,11.5,9.2,11.5c5.9,0,8.8-3.9,8.8-11.8
			C1417.7,976.5,1414.7,972.8,1408.8,972.8z M1422,945.6l-12.2,12.5h-8.9l10.1-12.5H1422z" />
					<path class="indiwhite" d="M1476.6,1004.2h-12.2v-22.1c0-6.2-2.2-9.2-6.6-9.2c-2.1,0-3.9,0.8-5.2,2.4c-1.4,1.6-2.1,3.7-2.1,6.2v22.7
			h-12.3v-39.8h12.3v6.3h0.2c2.9-4.8,7.2-7.3,12.8-7.3c8.8,0,13.2,5.5,13.2,16.4V1004.2z" />
					<path class="indiwhite" d="M1546,1004.2h-12.2v-6.1h-0.2c-3,4.7-7.1,7-12.2,7c-9.2,0-13.8-5.6-13.8-16.7v-24h12.2v22.9
			c0,5.6,2.2,8.4,6.7,8.4c2.2,0,4-0.8,5.3-2.3s2-3.6,2-6.3v-22.8h12.2V1004.2z" />
					<path class="indiwhite" d="M1582.3,975.5c-1.5-0.8-3.2-1.2-5.2-1.2c-2.7,0-4.8,1-6.3,2.9c-1.5,2-2.3,4.6-2.3,8v19h-12.3v-39.8h12.3v7.4
			h0.2c1.9-5.4,5.4-8.1,10.5-8.1c1.3,0,2.3,0.2,3,0.5V975.5z" />
					<path class="indiwhite" d="M1600.4,999.6h-0.2v4.6H1588v-58.9h12.3v25.1h0.2c3-4.6,7.3-7,12.9-7c5.1,0,9.1,1.8,11.8,5.3
			c2.8,3.5,4.2,8.3,4.2,14.4c0,6.6-1.6,11.9-4.9,16c-3.2,4-7.6,6-13,6C1606.6,1005.1,1602.9,1003.3,1600.4,999.6z M1600.1,982.8v4.1
			c0,2.6,0.7,4.7,2.2,6.4c1.5,1.7,3.4,2.5,5.7,2.5c2.8,0,5-1.1,6.5-3.2c1.5-2.2,2.3-5.2,2.3-9.2c0-3.3-0.7-5.9-2.1-7.7
			s-3.4-2.8-6-2.8c-2.5,0-4.5,0.9-6.1,2.8S1600.1,979.8,1600.1,982.8z" />
					<path class="indiwhite" d="M1669.6,1004.2H1658v-5.7h-0.2c-2.7,4.5-6.6,6.7-11.8,6.7c-3.9,0-6.9-1.1-9.1-3.3s-3.3-5.1-3.3-8.8
			c0-7.7,4.6-12.2,13.7-13.4l10.8-1.4c0-4.4-2.4-6.5-7.1-6.5c-4.7,0-9.2,1.4-13.5,4.2v-9.2c1.7-0.9,4-1.7,7-2.3c3-0.7,5.7-1,8.1-1
			c11.3,0,17,5.7,17,17V1004.2z M1658.1,988v-2.7l-7.2,0.9c-4,0.5-6,2.3-6,5.4c0,1.4,0.5,2.5,1.5,3.4c1,0.9,2.3,1.3,3.9,1.3
			c2.3,0,4.2-0.8,5.6-2.4C1657.4,992.5,1658.1,990.5,1658.1,988z" />
					<path class="indiwhite" d="M1717.8,1004.2h-12.2v-22.1c0-6.2-2.2-9.2-6.6-9.2c-2.1,0-3.9,0.8-5.2,2.4c-1.4,1.6-2.1,3.7-2.1,6.2v22.7
			h-12.3v-39.8h12.3v6.3h0.2c2.9-4.8,7.2-7.3,12.8-7.3c8.8,0,13.2,5.5,13.2,16.4V1004.2z" />
					<path class="indiwhite" d="M1760.6,1004.2h-11.6v-5.7h-0.2c-2.7,4.5-6.6,6.7-11.8,6.7c-3.9,0-6.9-1.1-9.1-3.3s-3.3-5.1-3.3-8.8
			c0-7.7,4.6-12.2,13.7-13.4l10.8-1.4c0-4.4-2.4-6.5-7.1-6.5c-4.7,0-9.2,1.4-13.5,4.2v-9.2c1.7-0.9,4-1.7,7-2.3c3-0.7,5.7-1,8.1-1
			c11.3,0,17,5.7,17,17V1004.2z M1749,988v-2.7l-7.2,0.9c-4,0.5-6,2.3-6,5.4c0,1.4,0.5,2.5,1.5,3.4c1,0.9,2.3,1.3,3.9,1.3
			c2.3,0,4.2-0.8,5.6-2.4C1748.3,992.5,1749,990.5,1749,988z" />
				</g>
			</g>
		</g>
	</a>
</svg>