<?xml version="1.0" encoding="utf-8"?>
<!-- Generator: Adobe Illustrator 28.0.0, SVG Export Plug-In . SVG Version: 6.00 Build 0)  -->
<svg version="1.1" id="Layer_1" xmlns="http://www.w3.org/2000/svg" xmlns:xlink="http://www.w3.org/1999/xlink" x="0px" y="0px"
	 viewBox="0 0 500 500" style="enable-background:new 0 0 500 500;" xml:space="preserve">
<style type="text/css">
	.line{fill:none;stroke:#000000;stroke-miterlimit:10;}
</style>
<g>
	<path class="circle" d="M59,11c26.47,0,48,21.53,48,48s-21.53,48-48,48S11,85.47,11,59S32.53,11,59,11 M59,10c-27.06,0-49,21.94-49,49
		s21.94,49,49,49s49-21.94,49-49S86.06,10,59,10L59,10z"/>
</g>
<g>
	<path class="circle" d="M441,393c26.47,0,48,21.53,48,48s-21.53,48-48,48s-48-21.53-48-48S414.53,393,441,393 M441,392c-27.06,0-49,21.94-49,49
		s21.94,49,49,49s49-21.94,49-49S468.06,392,441,392L441,392z"/>
</g>
<g>
	<path class="circle" d="M250,168c45.21,0,82,36.79,82,82s-36.79,82-82,82s-82-36.79-82-82S204.79,168,250,168 M250,167c-45.84,0-83,37.16-83,83
		s37.16,83,83,83s83-37.16,83-83S295.84,167,250,167L250,167z"/>
</g>
<path class="line" d="M108,59h286.52c25.99,0,47.04,21.09,47,47.08L441,392"/>
<path class="line" d="M59,108v286c0,25.96,21.04,47,47,47h286"/>
<line class="line" x1="309.5" y1="307.5" x2="406.5" y2="406.5"/>
<line class="line" x1="93.5" y1="93.5" x2="191.5" y2="191.5"/>
<rect class="cube"  x="52.5" y="124.5" width="12" height="12"/>
<rect class="cube"  x="103" y="102" width="12" height="12"/>
<rect class="cube"  x="149" y="53" width="12" height="12"/>
<rect class="cube"  x="435" y="341" width="12" height="12"/>
<rect class="cube"  x="344" y="435" width="12" height="12"/>
<rect class="cube"  x="386" y="386" width="12" height="12"/>
</svg>
