<?xml version="1.0" encoding="utf-8"?>
<!-- Generator: Adobe Illustrator 28.0.0, SVG Export Plug-In . SVG Version: 6.00 Build 0)  -->
<svg version="1.1" id="Layer_1" xmlns="http://www.w3.org/2000/svg" xmlns:xlink="http://www.w3.org/1999/xlink" x="0px" y="0px"
	 viewBox="0 0 500 500" style="enable-background:new 0 0 500 500;" xml:space="preserve">
<style type="text/css">
	.line{fill:none;stroke:#000000;stroke-miterlimit:10;}
	.st0{fill:none;stroke:#000000;stroke-miterlimit:10;}
</style>
<g>
	<path class="circle" d="M249.9,126.3c68.2,0,123.6,55.5,123.6,123.6s-55.5,123.6-123.6,123.6s-123.6-55.5-123.6-123.6S181.8,126.3,249.9,126.3
		 M249.9,125c-69,0-124.9,55.9-124.9,124.9S181,374.8,249.9,374.8s124.9-55.9,124.9-124.9S318.9,125,249.9,125L249.9,125z"/>
</g>
<g>
	<!-- <path class="line" x1="249.9" y1="448.1" x2="249.9" y2="373.8"/> -->
	<rect class="cube" x="244" y="56.7" width="12" height="12"/>
</g>
<g>
	<!-- <path class="line" x1="249.9" y1="125.2" x2="249.9" y2="50.9"/> -->
	<rect class="cube" x="368.8" y="119" width="12" height="12"/>

	
</g>

<g>
	<!-- <path class="line" x1="162.1" y1="337.7" x2="109.6" y2="390.2"/> -->
	<rect class="cube" x="420.9" y="243.9"  width="12" height="12"/>

</g>
<g>
	<!-- <path class="line" x1="390.3" y1="109.5" x2="337.7" y2="162.1"/> -->
	<rect class="cube" x="362.8" y="362.8" width="12" height="12"/>

</g>

<g>
	<!-- <path class="line" x1="125.2" y1="249.9" x2="50.8" y2="249.9"/> -->
	<rect class="cube" x="244" y="404" width="12" height="12"/>

</g>
<g>
	<!-- <path class="line" x1="448.2" y1="249.9" x2="373.8" y2="249.9"/> -->
	<rect class="cube" x="123.9" y="364" width="12" height="12"/>

</g>

<g>
	<!-- <path class="line" x1="161.6" y1="161.6" x2="109.1" y2="109.1"/> -->
	<rect class="cube" x="67.3" y="244" width="12" height="12"/>

</g>
<g>
	<!-- <path class="line" x1="390.3" y1="390.3" x2="337.8" y2="337.8"/> -->
	<rect class="cube" x="119.1" y="119.2" width="12" height="12"/>

</g>
<circle class="st0" cx="249.9" cy="25.7" r="25"/>
<circle class="st0" cx="249.9" cy="473.3" r="25"/>
<circle class="st0" cx="408" cy="91.8" r="25"/>
<circle class="st0" cx="92.2" cy="407.6" r="25"/>
<circle class="st0" cx="473.3" cy="249.9" r="25"/>
<circle class="st0" cx="25.9" cy="249.9" r="25"/>
<circle class="st0" cx="407.6" cy="407.6" r="25"/>
<circle class="st0" cx="91.9" cy="91.8" r="25"/>



<path class="line" d="M249.9,448.1 L249.9,373.8"/>
<path class="line" d="M249.9,125.2 L249.9,50.9"/>
<path class="line" d="M162.1,337.7 L109.6,390.2"/>
<path class="line" d="M390.3,109.5 L337.7,162.1"/>
<path class="line" d="M125.2,249.9 L50.8,249.9"/>
<path class="line" d="M448.2,249.9 L373.8,249.9"/>
<path class="line" d="M161.6,161.6 L109.1,109.1"/>
<path class="line" d="M390.3,390.3 L337.8,337.8"/>

</svg>
