<?xml version="1.0" encoding="utf-8"?>
<!-- Generator: Adobe Illustrator 28.0.0, SVG Export Plug-In . SVG Version: 6.00 Build 0)  -->
<svg version="1.1" id="Layer_1" xmlns="http://www.w3.org/2000/svg" xmlns:xlink="http://www.w3.org/1999/xlink" x="0px" y="0px"
	 viewBox="0 0 500 500" style="enable-background:new 0 0 500 500;" xml:space="preserve">
<style type="text/css">
	.line{fill:none;stroke:#000000;stroke-miterlimit:10;}
	.little_circle{fill:none;stroke:#000000;stroke-miterlimit:10;}
</style>
<g>
	<path class="circle" d="M250,148c56.24,0,102,45.76,102,102s-45.76,102-102,102s-102-45.76-102-102S193.76,148,250,148 M250,147
		c-56.89,0-103,46.11-103,103s46.11,103,103,103s103-46.11,103-103S306.89,147,250,147L250,147z"/>
</g>

<g>
	<line class="line" x1="250" y1="446" x2="250" y2="353"/>
</g>
<g>
	<line class="line" x1="250" y1="147" x2="250" y2="54"/>
</g>
<circle class="little_circle" cx="250" cy="32.5" r="21.5"/>
<circle class="little_circle" cx="250" cy="467.5" r="21.5"/>
<g>
	<line class="line" x1="177.17" y1="322.83" x2="111.41" y2="388.59"/>
</g>
<g>
	<line class="line" x1="388.59" y1="111.41" x2="322.83" y2="177.17"/>
</g>
<circle class="little_circle" cx="403.8" cy="96.2" r="21.5"/>
<circle class="little_circle" cx="96.2" cy="403.8" r="21.5"/>
<g>
	<line class="line" x1="147" y1="250" x2="54" y2="250"/>
</g>
<g>
	<line class="line" x1="446" y1="250" x2="353" y2="250"/>
</g>
<circle class="little_circle" cx="467.5" cy="250" r="21.5"/>
<circle class="little_circle" cx="32.5" cy="250" r="21.5"/>
<g>
	<line class="line" x1="177.17" y1="177.17" x2="111.41" y2="111.41"/>
</g>
<g>
	<line class="line" x1="388.59" y1="388.59" x2="322.83" y2="322.83"/>
</g>
<circle class="little_circle" cx="403.8" cy="403.8" r="21.5"/>
<circle class="little_circle" cx="96.2" cy="96.2" r="21.5"/>
</svg>
