<?xml version="1.0" encoding="utf-8"?>
<!-- Generator: Adobe Illustrator 28.0.0, SVG Export Plug-In . SVG Version: 6.00 Build 0)  -->
<svg version="1.1" id="Layer_1" xmlns="http://www.w3.org/2000/svg" xmlns:xlink="http://www.w3.org/1999/xlink" x="0px" y="0px"
	 viewBox="0 0 500 500" style="enable-background:new 0 0 500 500;" xml:space="preserve">
<style type="text/css">
	.st0{fill:none;stroke:#000000;stroke-miterlimit:10;}
</style>
<g>
	<path d="M138,210c29.65,0,57.52,11.55,78.49,32.51S249,291.35,249,321s-11.55,57.52-32.51,78.49C195.52,420.45,167.65,432,138,432
		s-57.52-11.55-78.49-32.51C38.55,378.52,27,350.65,27,321s11.55-57.52,32.51-78.49C80.48,221.55,108.35,210,138,210 M138,209
		c-61.86,0-112,50.14-112,112s50.14,112,112,112s112-50.14,112-112S199.86,209,138,209L138,209z"/>
</g>
<g>
	<path d="M389,276c43.01,0,78,34.99,78,78s-34.99,78-78,78s-78-34.99-78-78S345.99,276,389,276 M389,275c-43.63,0-79,35.37-79,79
		s35.37,79,79,79s79-35.37,79-79S432.63,275,389,275L389,275z"/>
</g>
<path class="st0" d="M138,209V108.95c0-22.34,18.11-40.45,40.45-40.45h170.11c22.34,0,40.45,18.11,40.45,40.45V276"/>
<rect x="131.5" y="146.5" width="14" height="14"/>
<rect x="240" y="62" width="14" height="14"/>
<rect x="281" y="62" width="14" height="14"/>
<rect x="384" y="132" width="14" height="14"/>
</svg>
