<?xml version="1.0" encoding="utf-8"?>
<!-- Generator: Adobe Illustrator 28.0.0, SVG Export Plug-In . SVG Version: 6.00 Build 0)  -->
<svg version="1.1" id="Layer_1" xmlns="http://www.w3.org/2000/svg" xmlns:xlink="http://www.w3.org/1999/xlink" x="0px" y="0px"
	 viewBox="0 0 500 500" style="enable-background:new 0 0 500 500;" xml:space="preserve">
<style type="text/css">
	.line{fill:none;stroke:#000000;stroke-miterlimit:10;}
</style>
<g>
	<g>
		<path class="circle" d="M64.93,2.25c34.56,0,62.68,28.12,62.68,62.68s-28.12,62.68-62.68,62.68S2.25,99.49,2.25,64.93S30.37,2.25,64.93,2.25
			 M64.93,1.25c-35.17,0-63.68,28.51-63.68,63.68s28.51,63.68,63.68,63.68s63.68-28.51,63.68-63.68S100.1,1.25,64.93,1.25
			L64.93,1.25z"/>
	</g>
	<g>
		<path class="circle" d="M400.24,302.74c53.76,0,97.51,43.74,97.51,97.51s-43.74,97.51-97.51,97.51s-97.51-43.74-97.51-97.51
			S346.48,302.74,400.24,302.74 M400.24,301.74c-54.4,0-98.51,44.1-98.51,98.51s44.1,98.51,98.51,98.51s98.51-44.1,98.51-98.51
			S454.65,301.74,400.24,301.74L400.24,301.74z"/>
	</g>
	<path class="line" d="M128.61,64.93h69.65c28.58,0,51.74,23.16,51.74,51.74v231.84c0,28.58,23.16,51.74,51.74,51.74h0"/>
	<path class="line" d="M64.93,128.61v69.65c0,28.58,23.16,51.74,51.74,51.74h231.84c28.58,0,51.74,23.16,51.74,51.74v0"/>
	<line class="line" x1="110.2" y1="110.2" x2="330.1" y2="330.1"/>
</g>
<rect class="cube"  x="137" y="60" width="9" height="9"/>
<rect class="cube"  x="174" y="60" width="9" height="9"/>
<rect class="cube"  x="233" y="78" width="9" height="9"/>
<rect class="cube"  x="130" y="129" width="9" height="9"/>
<rect class="cube"  x="148.5" y="147.5" width="9" height="9"/>
<rect class="cube"  x="73" y="227" width="9" height="9"/>
<rect class="cube"  x="173" y="172" width="9" height="9"/>
<rect class="cube"  x="60" y="184" width="9" height="9"/>
<rect class="cube"  x="153" y="246" width="9" height="9"/>
</svg>
