<?xml version="1.0" encoding="utf-8"?>
<!-- Generator: Adobe Illustrator 28.0.0, SVG Export Plug-In . SVG Version: 6.00 Build 0)  -->
<svg version="1.1" id="Layer_1" xmlns="http://www.w3.org/2000/svg" xmlns:xlink="http://www.w3.org/1999/xlink" x="0px" y="0px"
	 viewBox="0 0 500 500" style="enable-background:new 0 0 500 500;" xml:space="preserve">
<style type="text/css">
	.line{fill:none;stroke:#000000;stroke-miterlimit:10;}
</style>
<g>
	<path class="circle" d="M63.4,2c33.9,0,61.5,27.6,61.5,61.5s-27.6,61.5-61.5,61.5S2,97.3,2,63.4S29.6,2,63.4,2 M63.4,1C29,1,1,29,1,63.4
		s28,62.4,62.4,62.4s62.4-28,62.4-62.4S97.9,1,63.4,1L63.4,1z"/>
</g>
<g>
	<path class="circle" d="M405.3,312.6c51.1,0,92.7,41.6,92.7,92.7S456.5,498,405.3,498s-92.7-41.6-92.7-92.7S354.2,312.6,405.3,312.6 M405.3,311.7
		c-51.7,0-93.7,41.9-93.7,93.7s41.9,93.7,93.7,93.7s93.7-41.9,93.7-93.7S457.1,311.7,405.3,311.7L405.3,311.7z"/>
</g>
<path class="line" d="M126.6,62.9h69.7c28.6,0,51.7,23.2,51.7,51.7v231.8v1c0,31.9,25.9,57.8,57.8,57.8h5.8"/>
<path class="line" d="M63.9,125.6v69.7c0,28.6,23.2,51.7,51.7,51.7h231.8h0c31.9,0,57.8,25.9,57.8,57.8v6.8"/>
<line class="line" x1="107.6" y1="107.6" x2="339.1" y2="339.1"/>
<rect  class="cube" x="135" y="58" width="12" height="12"/>
<rect  class="cube" x="172" y="58" width="12" height="12"/>
<rect  class="cube" x="231" y="76" width="12" height="12"/>
<rect  class="cube" x="130" y="129" width="12" height="12"/>
<rect  class="cube" x="148.5" y="147.5" width="12" height="12"/>
<rect  class="cube" x="72" y="224" width="12" height="12"/>
<rect  class="cube" x="173" y="172" width="12" height="12"/>
<rect  class="cube" x="59" y="181" width="12" height="12"/>
<rect  class="cube" x="152" y="243" width="12" height="12"/>
</svg>
