<?xml version="1.0" encoding="utf-8"?>
<!-- Generator: Adobe Illustrator 28.0.0, SVG Export Plug-In . SVG Version: 6.00 Build 0)  -->
<svg version="1.1" id="Layer_1" xmlns="http://www.w3.org/2000/svg" xmlns:xlink="http://www.w3.org/1999/xlink" x="0px" y="0px"
	 viewBox="0 0 1920 1920" style="enable-background:new 0 0 1920 1920;" xml:space="preserve">
<style type="text/css">
	.color1{fill:#eeeeee;}
	.color2{fill:#31a1b4;}
</style>
<g id="grupoGeneral">
	<g id="lab">
		<path class="color1" d="M1162.5,1646h53.9v200.3c0,4.3-1,8.6-3,13s-4.5,8.1-7.5,11.1l0.8,0.4c3-3,6.7-5.5,11.1-7.4s8.7-2.8,13-2.8
			H1370v49.4h-207.4L1162.5,1646L1162.5,1646z"/>
		<path class="color1" d="M1486.8,1646h71.3l99.6,264H1600l-21.9-54.3l-112,0.4l-20.7,53.9h-58.1L1486.8,1646z M1517,1811.2
			c8.8,0,16.6,0.9,23.4,2.6c6.5,1.8,12.8,5.8,18.9,12.3c6,6.4,11.6,13.9,16.6,22.4l-54.3-144.5l-40.4,107.1L1517,1811.2L1517,1811.2
			z"/>
		<path class="color1" d="M1870.4,1662c16.6,10.7,24.9,27.6,24.9,50.7c0,3-0.7,6.3-2.1,10s-3.5,7.4-6.2,11.1
			c-2.8,3.8-6.2,7.4-10.4,10.9c-4.1,3.5-9.1,6.7-14.9,9.4c-2.8,1.3-6,2.1-9.8,2.6s-7.3,0.9-10.6,1.1l0.4,0.8c3-0.3,6.4-0.3,10.2-0.2
			c3.8,0.1,7.2,0.6,10.2,1.3c17.9,4.8,30.3,13.3,37.3,25.5s10.6,27.2,10.6,45.1c0,28.2-8.6,48.5-25.6,60.9
			c-17.1,12.4-40.7,18.7-70.9,18.7h-138v-264h126.7C1831,1646,1853.8,1651.3,1870.4,1662z M1816.1,1757.3c12.3,0,21.3-2.6,27-7.9
			s8.5-13.2,8.5-23.8c0-5.5-1.2-10.3-3.6-14.3s-5.7-7.3-9.8-9.8s-8.9-4.3-14.1-5.5c-5.3-1.1-10.8-1.7-16.6-1.7h-78.1v63
			L1816.1,1757.3L1816.1,1757.3z M1818.4,1860.6c11.3,0,21-2.8,29-8.5s12.1-14.1,12.1-25.5c0-9.1-3.1-16-9.4-20.9
			s-15.1-7.4-26.4-7.4h-94.3v62.2h89V1860.6z"/>
	</g>
	<g id="indi">
		<path class="color1" d="M10,10h104.8v444.6H10V10z"/>
	
			<path class="color1" d="M152.9,10h109.2l212.1,265.5c10.8,13.3,21,33,26.7,49.5l1.3-0.6c-5.7-15.9-10.2-38.1-10.2-55.3L492,10h104.8
				v444.6H487.6L276.1,191c-10.8-13.3-21.6-33.7-27.3-49.5h-1.3c5.7,16.5,10.2,38.7,10.2,55.9v257.2H152.9L152.9,10z"/>
			<path class="color1" d="M229.7,511.2c123.8,0,226.1,71.1,226.1,222.3S353.6,955.7,229.7,955.7H10V511.1L229.7,511.2z M115.4,628
				c0,17.8,0,146.1,0,231.8h123.2c45.7,0,111.8-37.5,111.8-126.4c0-85.7-65.4-126.4-111.8-126.4H55.1
				C78.6,607.1,115.4,608.3,115.4,628z"/>
			<path class="color1" d="M493.3,511.2h104.8v444.6H493.3V511.2z"/>
		</g>
	
	<path id="bl" class="color2" d="M10,1910v-472h110.3v344.6c0,15.5-7.3,32.4-18,43.2l0.7,0.7c10.7-10.8,27.4-18.2,42.8-18.2H482V1910H10z"/>
	<path id="ur" class="color2" d="M1910,10v472h-110.3V137.4c0-15.5,7.3-32.4,18-43.2l-0.7-0.7c-10.7,10.8-27.4,18.2-42.8,18.2h-336.3V10H1910z"/>
</g>
</svg>
