<?xml version="1.0" encoding="utf-8"?>
<!-- Generator: Adobe Illustrator 28.0.0, SVG Export Plug-In . SVG Version: 6.00 Build 0)  -->
<svg version="1.1" id="Layer_1" xmlns="http://www.w3.org/2000/svg" xmlns:xlink="http://www.w3.org/1999/xlink" x="0px" y="0px"
	 viewBox="0 0 500 500" style="enable-background:new 0 0 500 500;" xml:space="preserve">
<g>
	<path class="circle" d="M250,112c36.86,0,71.52,14.35,97.58,40.42C373.65,178.48,388,213.14,388,250s-14.35,71.52-40.42,97.58
		C321.52,373.65,286.86,388,250,388s-71.52-14.35-97.58-40.42C126.35,321.52,112,286.86,112,250s14.35-71.52,40.42-97.58
		S213.14,112,250,112 M250,111c-76.77,0-139,62.23-139,139s62.23,139,139,139s139-62.23,139-139S326.77,111,250,111L250,111z"/>
</g>
<g>
	<path class="line" d="M120.72,13.45c72.94,0,165.68,47.43,242.03,123.79c55.62,55.62,96.12,119.66,114.05,180.35
		c8.7,29.45,11.6,56.49,8.61,80.37c-3.08,24.64-12.33,44.82-27.48,59.98c-18.72,18.72-45.91,28.61-78.65,28.61
		c-72.94,0-165.69-47.43-242.05-123.79C81.62,307.14,41.12,243.1,23.19,182.41c-8.7-29.45-11.6-56.49-8.61-80.37
		C17.66,77.4,26.9,57.22,42.06,42.06C60.77,23.35,87.97,13.45,120.72,13.45L120.72,13.45 M120.71,12.45
		c-32.17,0-59.76,9.3-79.36,28.9c-62.67,62.67-20.05,206.88,95.18,322.11c79.19,79.19,172.06,124.08,242.76,124.08
		c32.17,0,59.76-9.3,79.36-28.9c62.67-62.67,20.05-206.88-95.18-322.11C284.27,57.34,191.4,12.44,120.71,12.45L120.71,12.45z"/>
</g>
<g>
	<path class="line" d="M379.29,13.45c16.15,0,30.98,2.37,44.06,7.04c13.45,4.8,25.08,12.06,34.59,21.57c15.16,15.16,24.4,35.34,27.48,59.98
		c2.99,23.88,0.09,50.92-8.61,80.37c-17.93,60.68-58.43,124.73-114.05,180.35c-76.36,76.36-169.1,123.79-242.05,123.79
		c-16.16,0-30.98-2.37-44.06-7.04c-13.45-4.8-25.09-12.06-34.59-21.57c-15.16-15.16-24.4-35.34-27.48-59.98
		c-2.99-23.88-0.09-50.92,8.61-80.37c17.93-60.68,58.43-124.73,114.05-180.35C213.6,60.89,306.34,13.45,379.29,13.45L379.29,13.45
		 M379.29,12.45c-70.69,0-163.57,44.9-242.76,124.08C21.3,251.77-21.31,395.98,41.35,458.65c19.6,19.6,47.18,28.9,79.36,28.9
		c70.69,0,163.57-44.9,242.76-124.08C478.7,248.23,521.31,104.02,458.65,41.35C439.05,21.75,411.47,12.45,379.29,12.45L379.29,12.45
		z"/>
</g>
<rect class="cube"  x="34.5" y="34.5" width="14" height="14"/>
<rect class="cube"  x="448" y="454" width="14" height="14"/>
<rect class="cube"  x="363" y="138" width="14" height="14"/>
<rect class="cube"  x="448" y="32" width="14" height="14"/>
<rect class="cube"  x="38" y="454" width="14" height="14"/>
<rect class="cube"  x="129" y="129" width="14" height="14"/>
<rect class="cube"  x="356" y="358" width="14" height="14"/>
<rect class="cube"  x="122" y="348" width="14" height="14"/>
</svg>
