<?xml version="1.0" encoding="utf-8"?>
<!-- Generator: Adobe Illustrator 28.0.0, SVG Export Plug-In . SVG Version: 6.00 Build 0)  -->
<svg version="1.1" id="Layer_1" xmlns="http://www.w3.org/2000/svg" xmlns:xlink="http://www.w3.org/1999/xlink" x="0px" y="0px"
	 viewBox="0 0 500 500" style="enable-background:new 0 0 500 500;" xml:space="preserve">

<g>
	<path class="circle" d="M250,94.9c41.4,0,80.4,16.1,109.7,45.4c29.3,29.3,45.4,68.2,45.4,109.7s-16.1,80.4-45.4,109.7
		c-29.3,29.3-68.2,45.4-109.7,45.4s-80.4-16.1-109.7-45.4C111,330.4,94.9,291.4,94.9,250s16.1-80.4,45.4-109.7S208.6,94.9,250,94.9
		 M250,93.8c-86.3,0-156.2,69.9-156.2,156.2S163.7,406.2,250,406.2S406.2,336.3,406.2,250S336.3,93.8,250,93.8L250,93.8z"/>
</g>
<g>
	<path class="line" d="M116.1,5c75.5,0,171.6,49.1,250.6,128.2c57.6,57.6,99.5,123.9,118.1,186.8c9,30.5,12,58.5,8.9,83.2
		c-3.2,25.5-12.8,46.4-28.5,62.1c-19.4,19.4-47.5,29.6-81.4,29.6c-75.5,0-171.6-49.1-250.7-128.2C75.6,309.2,33.7,242.9,15.1,180
		c-9-30.5-12-58.5-8.9-83.2C9.4,71.3,19,50.4,34.7,34.7C54,15.3,82.2,5,116.1,5L116.1,5 M116.1,4c-33.3,0-61.9,9.6-82.2,29.9
		C-31,98.8,13.2,248.2,132.5,367.5c82,82,178.2,128.5,251.4,128.5c33.3,0,61.9-9.6,82.2-29.9c64.9-64.9,20.8-214.2-98.6-333.6
		C285.5,50.5,189.3,4,116.1,4L116.1,4z"/>
</g>
<g>
	<path class="line" d="M383.9,5c16.7,0,32.1,2.5,45.6,7.3c13.9,5,26,12.5,35.8,22.3c15.7,15.7,25.3,36.6,28.5,62.1c3.1,24.7,0.1,52.7-8.9,83.2
		c-18.6,62.8-60.5,129.2-118.1,186.8C287.7,445.8,191.7,495,116.1,495c-16.7,0-32.1-2.5-45.6-7.3c-13.9-5-26-12.5-35.8-22.3
		C19,449.6,9.4,428.7,6.2,403.2c-3.1-24.7-0.1-52.7,8.9-83.2c18.6-62.8,60.5-129.2,118.1-186.8C212.3,54.2,308.3,5,383.9,5L383.9,5
		 M383.9,4c-73.2,0-169.4,46.5-251.4,128.5C13.2,251.8-31,401.2,33.9,466.1c20.3,20.3,48.9,29.9,82.2,29.9
		c73.2,0,169.4-46.5,251.4-128.5C486.8,248.2,531,98.8,466.1,33.9C445.8,13.6,417.2,4,383.9,4L383.9,4z"/>
</g>
<rect  class="cube" x="281" y="62" width="12" height="12"/>
<rect  class="cube" x="281" y="62" width="12" height="12"/>
<rect  class="cube" x="281" y="62" width="12" height="12"/>
<rect  class="cube" x="281" y="62" width="12" height="12"/>
<rect  class="cube" x="281" y="62" width="12" height="12"/>
<rect  class="cube" x="281" y="62" width="12" height="12"/>
<rect  class="cube" x="281" y="62" width="12" height="12"/>
<rect  class="cube" x="281" y="62" width="12" height="12"/>
</svg>
