<?xml version="1.0" encoding="utf-8"?>
<!-- Generator: Adobe Illustrator 28.0.0, SVG Export Plug-In . SVG Version: 6.00 Build 0)  -->
<svg version="1.1" id="Capa_1" xmlns="http://www.w3.org/2000/svg" xmlns:xlink="http://www.w3.org/1999/xlink" x="0px" y="0px"
	 viewBox="0 0 1084.9 1017.9" style="enable-background:new 0 0 1084.9 1017.9;" xml:space="preserve">
<style type="text/css">
	.vias_secundarias{fill:none;}
</style>
<g id="Layer_1">
	<g id="Layer_3">
		<g>
			<polyline class="vias_secundarias" points="573.7,31.9 568.1,27.6 530,30.8 516.3,26.2 483.8,10.5 469.9,0 470.1,9.9 482.3,41.4 483.4,46 
				483.8,49.7 542,203.6 			"/>
			<polyline class="vias_secundarias" points="702.4,63 694.2,78.3 689.7,92.8 673.6,117.9 666.8,136.6 590.1,250 581.6,286.6 591.1,304.9 
				581.1,377.7 577.5,384.8 573.5,409.4 589.3,471.6 595,494 592.5,589.4 597.3,627.1 602.7,642.8 584.3,742.7 586.7,765.4 
				580.6,871.8 634.6,974.5 652.3,981.2 671.1,996.4 692.6,1004.6 750.2,1013.8 776.7,987.2 819.9,982.2 			"/>
			<polyline class="vias_secundarias" points="717.9,70.5 637,273.9 622.5,315.4 617.6,348.8 			"/>
			<polyline class="vias_secundarias" points="405.5,74.7 421.3,116.1 410.3,211.9 406.6,219.1 404.4,239.7 392.9,258.9 384.8,321.4 			"/>
			<polyline class="vias_secundarias" points="282.4,231.3 286.9,233.9 292.3,238.5 325,248.8 352.6,243.7 387.8,249 400.7,257.8 420.7,273.9 
				433.1,293.7 449.8,303.6 457.4,305 480.1,315 487.6,318.9 531.7,327.9 			"/>
			<polyline class="vias_secundarias" points="270.4,142.9 286.2,148.6 290.5,148.4 346.5,164.4 355.2,165.3 359.7,166.9 363.2,171.9 
				381.4,177.7 419.1,222.5 436.9,253.8 492.7,264 512.4,269.4 549.6,283.7 			"/>
			<polyline class="vias_secundarias" points="305.6,202.1 311.8,198.2 325.9,193.7 368.1,207.5 410.3,212.7 468.2,192.6 515.6,194.7 
				585.2,212.9 612.6,222.6 675.6,246 731.6,266.5 			"/>
			<polyline class="vias_secundarias" points="849.2,310.8 844.6,317 819.2,378.6 802.9,520.7 819.5,581.9 800,666.3 791.3,677 			"/>
			<path class="vias_secundarias" d="M1072.9,653.8l-5.9,2.2c0,0-97-19.4-99.6-20.1s-51.2-29.5-51.2-29.5l-1.8-4.1l2.6-4.4l-64.8-26.8l2.4-10.9
				l-23.4-7.5l-19.9-8.9l-7.3,2.1l-68.8-12.5l-4.8-1.8l-28.9-0.7l-3.7,1.8l-12.8,0.8"/>
			<path class="vias_secundarias" d="M972.2,981l10.1-28.7l8.4-14.8l3.8-23.6l-59.8-87.8l-50.1,7.5l-13.5-1.9l-4-9.4l-25.8-4.2L781.2,794
				l-7.6-9.9l-0.7-13.2l-19.1-18.8l-73.7-12.8l-7.8-12L646,714.9c0,0-6.7-20.5-6.8-21.8s11.1-75.2,11.1-75.2"/>
			<path class="vias_secundarias" d="M529.3,785.1l13,6.4c0,0,48.6-11.7,49.5-12.4s8.8-0.8,8.8-0.8l5.2-2.2l39.3,7.8l22.8,12.6"/>
			<path class="vias_secundarias" d="M493.8,826.9l-4.8,13.8c0,0,50.8,46.3,51.5,46.9s12.4,4,12.4,4l6.4,7.1l-0.8,8.6l6.5,15.9l9.6,9.6l68.9,34.1
				"/>
			<path class="vias_secundarias" d="M437.5,897.2l9.9-10.4l10.2-30.6c0,0,50.5-38.8,51.1-39.6s18.7-25.4,18.7-25.4"/>
			<path class="vias_secundarias" d="M449.7,918.8c0.3-1.2-12.2-24.7-12.2-24.7L414,882.6l-2.1-10.1l6.6-17.7l-39.2-21l-17.9-155.7l94.9-307.9
				l27.5-65.4l4.6-11.7l4.7-30.6l17-17.5"/>
			<path class="vias_secundarias" d="M454,374.5l-28.1,35.3l-4,11.9l11.5,50.8l26.5,31.7c0,0,51.5,195.8,52.9,196.2c1.4,0.4,22.1,28.8,22.1,28.8
				l4.5,24.9l6.8,16.2l-0.8,4.2l8.2,4l2.3,9.4l4,6.6l3.6,22.6l-2.6,31.4l22.2,25.7"/>
			<polyline class="vias_secundarias" points="617.7,857.5 623.1,817.1 633.6,771.3 621.2,741.3 625,680.8 634,624.6 631.2,616.6 641.8,565 			
				"/>
			<path class="vias_secundarias" d="M281.1,933l7.5,3.3L299,938l9.4,7.2l5.2-3.4l-6.4-24.8l-14.1-19.7l-13.4-7.3l-11-11.8c0,0-5.8-3.9-0.3-17.6
				c5.4-13.7,16.5-31.2,16.5-31.2l9.5-6.7c0,0,6-11.1,6.5-11.7s8.1-12,8.1-12l0.4-4.9l8.9-13.1c0,0,4.7-35.7,12.7-51.1
				s-1.6-19.6-1.6-19.6l0.6-12.1l5.6-6.3l23.4-5l24.8-2.6l6.6-7.7l6.8-36l16.3-17l80.4-133.8"/>
			<path class="vias_secundarias" d="M377.3,802.6l51.5-27.3l59.6-66.8c0,0,6-8.6,6.3-9.5s8.9-4.6,8.9-4.6l6.5-8.6"/>
			<polyline class="vias_secundarias" points="489,696.1 422.3,690.7 402.4,689.1 399.8,691.1 383.7,684.6 362,680.9 			"/>
			<path class="vias_secundarias" d="M428.8,775.3"/>
			<polyline class="vias_secundarias" points="639.6,683 613.8,678.9 601.5,685.2 551.3,672.8 395.6,651.7 373.6,643.1 			"/>
			<polyline class="vias_secundarias" points="546.8,658.3 565.4,644.9 571.7,433.4 576.1,424.8 			"/>
			<path class="vias_secundarias" d="M733.2,560.3l-4.6,2.1l-15.2,16.4l-30.7-1.2l-15.7-4.9l-4.7-10.3l-8.9-7.2l-24.7-0.9l-47.1-9.8l-28.6-4
				l-12.2,2.1l-9.1-0.8l-35.4-52.1c0,0,0.5-2.9-0.3-3.6c-0.8-0.7,18-20.3,18-20.3"/>
			<polyline class="vias_secundarias" points="646.7,166.4 643.9,183.9 620.3,255.9 600.8,377.7 595.9,413.2 595.7,458.7 589.5,473.2 			"/>
			<polyline class="vias_secundarias" points="517.1,235.8 520.1,238.3 487,365.3 476.1,504.2 467.5,534.3 			"/>
			<polyline class="vias_secundarias" points="543.4,203.3 546.4,210.8 542,224.3 539.1,261.2 535.5,299.9 525,369.2 522.6,381.5 493,606.7 
				485.5,613.7 			"/>
			<path class="vias_secundarias" d="M195.1,486.7c0,0,91.4-28.7,94.3-29.1s97.5-57,97.5-57l14-2.9l23,12.4l2-0.3"/>
			<path class="vias_secundarias" d="M553.8,336.3c0,0,0.5,1.3,0.8,1.5s4.6,1.2,4.6,1.2v5.1l0.7,0.9l-39.1,267.6"/>
			<path class="vias_secundarias" d="M409,438.7c0.9-0.1,136.4-7.6,136.4-7.6l5-2.8l44.8-2.3l60.6,3.5l5.8,10.4l5.6,7.4l30.2,5.2l4.4,9.1l7,5.8
				l-2.8,8.1l77.8,43.2"/>
			<polyline class="vias_secundarias" points="776.7,408.2 776,416 771.2,425.5 743,551.7 738,558.1 716.1,614.3 			"/>
			<polyline class="vias_secundarias" points="795.3,548.4 766.1,561 742.6,552.9 			"/>
			<polyline class="vias_secundarias" points="717,615.4 676.1,620.1 600.1,611.6 594.9,612.4 562,608.9 475.5,595.6 439.1,580.7 402.1,571.7 
				393,575.8 			"/>
			<polyline class="vias_secundarias" points="386.8,324.5 404.2,372.7 317.9,359.4 308.7,362.1 302.5,367.5 270.2,377.2 267.9,385 264.9,401.4 
				249.7,429.1 246.7,435.1 233.7,434.7 			"/>
			<polyline class="vias_secundarias" points="679.8,539.9 583.9,530.3 568.1,526.4 534.3,520.8 473.6,513 430.9,502.8 424.7,507.3 377,512.2 
				359.6,513.9 329,522.8 			"/>
			<polyline class="vias_secundarias" points="375.6,512.4 393.2,521.8 398.5,525.1 413.9,517.5 423.9,516.7 528.7,538.1 			"/>
			<polyline class="vias_secundarias" points="382.3,430.4 360.4,642.1 362.6,653.4 355.1,680.9 352.4,688.9 			"/>
			<path class="vias_secundarias" d="M0,620.2c1.1-2.7,15.3-17.9,15.3-17.9l42-24.9l2.5-11.5l5.3-7.7l3.2-13.2l-6.6-25.3l15.7-1.4l15.8-1.9
				l6.2,5.5l10.9-7.6l5-14.4l8.6-4.3l2.5-9.8l11.2-11.2l22-8.3l33.3-37.6l19.5-8.6l2.8,14.8l13.1,5.9"/>
			<path class="vias_secundarias" d="M125.8,775.3c0,0.2-0.6,1.7-0.6,1.7l2.1,4.1l-7.8,16.4c0,0,0.2,1.9,1.7,1.8s5.9-1.8,8.3,1.2
				c2.4,3,7.2,5,7.2,5s25.6-6.7,26-6.9s3.3-2.7,3.3-2.7s0.1-2.6,3.6-5.9s2.3-4.8,2.3-4.8s16-20.8,16.2-21.1s23.8-11.8,23.8-11.8
				l24.9-20.4l24-4.5l-0.5-6.1l50.9-19.8l10.4-6.7l5-5.7c0,0,13.4-3.3,13.8-3.7s1.8-2.6,2.3-2.4s7.4-1.6,7.4-1.6l11.9-1.1"/>
			<polyline class="vias_secundarias" points="329.7,699.2 325.2,699.5 313.3,701.7 307,704.9 303.1,703.9 			"/>
		</g>
	</g>
</g>
<line class="vias_secundarias" x1="553.8" y1="336.3" x2="531.7" y2="327.9"/>
</svg>
