<?xml version="1.0" encoding="utf-8"?>
<!-- Generator: Adobe Illustrator 28.0.0, SVG Export Plug-In . SVG Version: 6.00 Build 0)  -->
<svg version="1.1" id="Layer_1" xmlns="http://www.w3.org/2000/svg" xmlns:xlink="http://www.w3.org/1999/xlink" x="0px" y="0px"
	 viewBox="0 0 1084.9 1017.9" style="enable-background:new 0 0 1084.9 1017.9;" xml:space="preserve">
<style type="text/css">
	.via_primaria{fill:none;}
</style>
<g id="principales">
	<g>
		<polyline class="via_primaria" points="444.2,16.9 443.4,21.7 462.7,46 536.4,250.6 		"/>
		<polyline class="via_primaria" points="826.7,247.8 821.5,260.7 798.8,268 708.4,335.2 655.2,361.7 		"/>
		<polyline class="via_primaria" points="631,378.6 939.4,561.8 1029.4,634.4 		"/>
		<path class="via_primaria" d="M1026.3,635.4c0,0,9,2.1,6.8-1s-14.9,3.8-14.9,3.8L967.4,662l-13.5,20.3l-113.8,13.6L728.6,643"/>
		<path class="via_primaria" d="M372.8,487l8.8,21.5l-11.1,38.4l-1.8,36.6l1.9,5.7l-0.7,8.8l3.8,8l-2.3,18.9L360,637.4l-14.4,7L332,700
			l-17.3,20.7l-14.6,28.8l-28.8,22.2c0,0-7.8,6.6,4.2,34.8s36.7,10.8,78.4,32c0,0,56.3-4.9,61.1-3.8c4.8,1.1,55.5,3,66.2,12.7
			s30.6,53.9,55,61.2s58.7-6.9,58.7-6.9l116.6-51.9l92.7-120.2l0.1-25.6"/>
		<polyline class="via_primaria" points="426.1,401.6 515.7,357.6 549.9,327 577.4,292.8 		"/>
		<polyline class="via_primaria" points="575.8,392.8 517.9,387.2 419.6,412.6 376.5,495 		"/>
		<path class="via_primaria" d="M417.5,415.2l0.3-14.1l32.3-55l8.8-17.9l5.1-22.7l-0.2-8.3l5-25.9l15.9-16.4l25.7,3.6l35.6-8.1l23.6,1.2
			c0,0,19.3,11.2,19.4,11.8s35.4,13.6,35.4,13.6l24.6,17.6l30.2,12l23.7-8.2l23.8,21.7l5.7,17.6c0,0-3.7,18.6-4.2,19.4
			S690,424.9,690,424.9l-77.2-18.5l-111.3-13.2"/>
		<polyline class="via_primaria" points="835,398.6 832.2,408.2 790,411.7 694.5,565.4 689.9,576.2 664.8,593.9 599.5,598 567.9,644 
			443.9,636 383.4,585 		"/>
		<path class="via_primaria" d="M400.4,538l4.2-8.9l8.4-32.9l79.4-24.5l86.9,3.8c0,0,111.8-23.8,113.1-22.7s63.8,8.3,63.8,8.3l5.9-5.3"/>
		<polyline class="via_primaria" points="657.4,363.4 684.5,405.2 687.2,425.2 		"/>
		<polyline class="via_primaria" points="667.2,590.2 676,580.2 693,456.9 687.5,429.2 691.5,422.4 		"/>
		<polyline class="via_primaria" points="670.2,83.6 663,88.1 653.4,101.3 624.2,116.6 616.2,154.3 522.2,272.8 		"/>
		<path class="via_primaria" d="M305.5,92.6c0.3,0.6,15.8,16.8,15.8,16.8l23.4,28.5l15.6,23.6l19.7,18.5l-4.5,82.7L383,287l41.9,54.3l19.4,13
			"/>
		<polyline class="via_primaria" points="283.9,290.5 299.9,304.6 307.5,305.6 322.2,313.2 324.6,316.8 357,330.5 368,332.1 375.4,341.2 
			384.4,344.8 405.4,352.6 435.8,369.2 		"/>
		<polyline class="via_primaria" points="456.8,935.2 474.1,905.9 520,873.8 554.7,768 532.8,692.7 527.2,663.2 533.2,638.5 		"/>
		<path class="via_primaria" d="M424.7,491.4l-6.9-3.9l-50.1-0.9l1-23.2l-6.8-9.2l2.8-21.4l-6.5-13.3l-4.2-12.9l-8.3-3.3l-14.8-18.7
			l-13.2-11.1c0,0-17.7-15.3-17.3-15.9s-15.5-27.1-15.5-27.1l-11.8-10.7c0,0,1.2-25,1.4-25.2"/>
		<polyline class="via_primaria" points="768,544.9 704.5,500.2 638.5,492.4 583.5,493.5 576.4,498.9 547,641.5 		"/>
	</g>
</g>
</svg>
