<?xml version="1.0" encoding="utf-8"?>
<!-- Generator: Adobe Illustrator 28.0.0, SVG Export Plug-In . SVG Version: 6.00 Build 0)  -->
<svg version="1.1" id="Capa_1" xmlns="http://www.w3.org/2000/svg" xmlns:xlink="http://www.w3.org/1999/xlink" x="0px" y="0px"
	 viewBox="0 0 1111 1080" style="enable-background:new 0 0 1111 1080;" xml:space="preserve">
<style type="text/css">
	.st0{fill:none;}
</style>
<g id="Layer_1">
	<g id="Layer_3">
		<g>
			<polyline class="st0" points="599.8,89.9 594.2,85.6 556.1,88.8 542.4,84.2 509.9,68.5 496,58 496.2,67.9 508.4,99.4 509.5,104 
				509.9,107.7 568.1,261.6 			"/>
			<polyline class="st0" points="728.5,121 720.3,136.3 715.8,150.8 699.7,175.9 692.9,194.6 616.2,308 607.7,344.6 617.2,362.9 
				607.2,435.7 603.6,442.8 599.6,467.4 615.4,529.6 621.1,552 618.6,647.4 623.4,685.1 628.8,700.8 610.4,800.7 612.8,823.4 
				606.7,929.8 660.7,1032.5 678.4,1039.2 697.2,1054.4 718.7,1062.6 776.3,1071.8 802.8,1045.2 846,1040.2 			"/>
			<polyline class="st0" points="744,128.5 663.1,331.9 648.6,373.4 643.7,406.8 			"/>
			<polyline class="st0" points="431.6,132.7 447.4,174.1 436.4,269.9 432.7,277.1 430.5,297.7 419,316.9 410.9,379.4 			"/>
			<polyline class="st0" points="308.5,289.3 313,291.9 318.4,296.5 351.1,306.8 378.7,301.7 413.9,307 426.8,315.8 446.8,331.9 
				459.2,351.7 475.9,361.6 483.5,363 506.2,373 513.7,376.9 557.8,385.9 			"/>
			<polyline class="st0" points="296.5,200.9 312.3,206.6 316.6,206.4 372.6,222.4 381.3,223.3 385.8,224.9 389.3,229.9 
				407.5,235.7 445.2,280.5 463,311.8 518.8,322 538.5,327.4 575.7,341.7 			"/>
			<polyline class="st0" points="331.7,260.1 337.9,256.2 352,251.7 394.2,265.5 436.4,270.7 494.3,250.6 541.7,252.7 611.3,270.9 
				638.7,280.6 701.7,304 757.7,324.5 			"/>
			<polyline class="st0" points="875.3,368.8 870.7,375 845.3,436.6 829,578.7 845.6,639.9 826.1,724.3 817.4,735 			"/>
			<path class="st0" d="M1099,711.8l-5.9,2.2c0,0-97-19.4-99.6-20.1s-51.2-29.5-51.2-29.5l-1.8-4.1l2.6-4.4l-64.8-26.8l2.4-10.9
				l-23.4-7.5l-19.9-8.9l-7.3,2.1l-68.8-12.5l-4.8-1.8l-28.9-0.7l-3.7,1.8l-12.8,0.8"/>
			<path class="st0" d="M998.3,1039l10.1-28.7l8.4-14.8l3.8-23.6l-59.8-87.8l-50.1,7.5l-13.5-1.9l-4-9.4l-25.8-4.2L807.3,852
				l-7.6-9.9l-0.7-13.2l-19.1-18.8l-73.7-12.8l-7.8-12l-26.3-12.4c0,0-6.7-20.5-6.8-21.8c-0.1-1.3,11.1-75.2,11.1-75.2"/>
			<path class="st0" d="M555.4,843.1l13,6.4c0,0,48.6-11.7,49.5-12.4s8.8-0.8,8.8-0.8l5.2-2.2l39.3,7.8l22.8,12.6"/>
			<path class="st0" d="M519.9,884.9l-4.8,13.8c0,0,50.8,46.3,51.5,46.9s12.4,4,12.4,4l6.4,7.1l-0.8,8.6l6.5,15.9l9.6,9.6l68.9,34.1
				"/>
			<path class="st0" d="M463.6,955.2l9.9-10.4l10.2-30.6c0,0,50.5-38.8,51.1-39.6s18.7-25.4,18.7-25.4"/>
			<path class="st0" d="M475.8,976.8c0.3-1.2-12.2-24.7-12.2-24.7l-23.5-11.5l-2.1-10.1l6.6-17.7l-39.2-21l-17.9-155.7l94.9-307.9
				l27.5-65.4l4.6-11.7l4.7-30.6l17-17.5"/>
			<path class="st0" d="M480.1,432.5L452,467.8l-4,11.9l11.5,50.8l26.5,31.7c0,0,51.5,195.8,52.9,196.2s22.1,28.8,22.1,28.8
				l4.5,24.9l6.8,16.2l-0.8,4.2l8.2,4l2.3,9.4l4,6.6l3.6,22.6l-2.6,31.4l22.2,25.7"/>
			<polyline class="st0" points="643.8,915.5 649.2,875.1 659.7,829.3 647.3,799.3 651.1,738.8 660.1,682.6 657.3,674.6 667.9,623 
							"/>
			<path class="st0" d="M307.2,991l7.5,3.3l10.4,1.7l9.4,7.2l5.2-3.4l-6.4-24.8l-14.1-19.7l-13.4-7.3l-11-11.8c0,0-5.8-3.9-0.3-17.6
				c5.4-13.7,16.5-31.2,16.5-31.2l9.5-6.7c0,0,6-11.1,6.5-11.7s8.1-12,8.1-12l0.4-4.9l8.9-13.1c0,0,4.7-35.7,12.7-51.1
				s-1.6-19.6-1.6-19.6l0.6-12.1l5.6-6.3l23.4-5l24.8-2.6l6.6-7.7l6.8-36l16.3-17L520,547.8"/>
			<path class="st0" d="M403.4,860.6l51.5-27.3l59.6-66.8c0,0,6-8.6,6.3-9.5s8.9-4.6,8.9-4.6l6.5-8.6"/>
			<polyline class="st0" points="515.1,754.1 448.4,748.7 428.5,747.1 425.9,749.1 409.8,742.6 388.1,738.9 			"/>
			<path class="st0" d="M454.9,833.3"/>
			<polyline class="st0" points="665.7,741 639.9,736.9 627.6,743.2 577.4,730.8 421.7,709.7 399.7,701.1 			"/>
			<polyline class="st0" points="572.9,716.3 591.5,702.9 597.8,491.4 602.2,482.8 			"/>
			<path class="st0" d="M759.3,618.3l-4.6,2.1l-15.2,16.4l-30.7-1.2l-15.7-4.9l-4.7-10.3l-8.9-7.2l-24.7-0.9l-47.1-9.8l-28.6-4
				l-12.2,2.1l-9.1-0.8l-35.4-52.1c0,0,0.5-2.9-0.3-3.6c-0.8-0.7,18-20.3,18-20.3"/>
			<polyline class="st0" points="672.8,224.4 670,241.9 646.4,313.9 626.9,435.7 622,471.2 621.8,516.7 615.6,531.2 			"/>
			<polyline class="st0" points="543.2,293.8 546.2,296.3 513.1,423.3 502.2,562.2 493.6,592.3 			"/>
			<polyline class="st0" points="569.5,261.3 572.5,268.8 568.1,282.3 565.2,319.2 561.6,357.9 551.1,427.2 548.7,439.5 
				519.1,664.7 511.6,671.7 			"/>
			<path class="st0" d="M221.2,544.7c0,0,91.4-28.7,94.3-29.1s97.5-57,97.5-57l14-2.9l23,12.4l2-0.3"/>
			<path class="st0" d="M579.9,394.3c0,0,0.5,1.3,0.8,1.5s4.6,1.2,4.6,1.2v5.1l0.7,0.9l-39.1,267.6"/>
			<path class="st0" d="M435.1,496.7c0.9-0.1,136.4-7.6,136.4-7.6l5-2.8l44.8-2.3l60.6,3.5l5.8,10.4l5.6,7.4l30.2,5.2l4.4,9.1l7,5.8
				l-2.8,8.1l77.8,43.2"/>
			<polyline class="st0" points="802.8,466.2 802.1,474 797.3,483.5 769.1,609.7 764.1,616.1 742.2,672.3 			"/>
			<polyline class="st0" points="821.4,606.4 792.2,619 768.7,610.9 			"/>
			<polyline class="st0" points="743.1,673.4 702.2,678.1 626.2,669.6 621,670.4 588.1,666.9 501.6,653.6 465.2,638.7 428.2,629.7 
				419.1,633.8 			"/>
			<polyline class="st0" points="412.9,382.5 430.3,430.7 344,417.4 334.8,420.1 328.6,425.5 296.3,435.2 294,443 291,459.4 
				275.8,487.1 272.8,493.1 259.8,492.7 			"/>
			<polyline class="st0" points="705.9,597.9 610,588.3 594.2,584.4 560.4,578.8 499.7,571 457,560.8 450.8,565.3 403.1,570.2 
				385.7,571.9 355.1,580.8 			"/>
			<polyline class="st0" points="401.7,570.4 419.3,579.8 424.6,583.1 440,575.5 450,574.7 554.8,596.1 			"/>
			<polyline class="st0" points="408.4,488.4 386.5,700.1 388.7,711.4 381.2,738.9 378.5,746.9 			"/>
			<path class="st0" d="M26.1,678.2c1.1-2.7,15.3-17.9,15.3-17.9l42-24.9l2.5-11.5l5.3-7.7l3.2-13.2l-6.6-25.3l15.7-1.4l15.8-1.9
				l6.2,5.5l10.9-7.6l5-14.4l8.6-4.3l2.5-9.8l11.2-11.2l22-8.3l33.3-37.6l19.5-8.6l2.8,14.8l13.1,5.9"/>
			<path class="st0" d="M151.9,833.3c0,0.2-0.6,1.7-0.6,1.7l2.1,4.1l-7.8,16.4c0,0,0.2,1.9,1.7,1.8s5.9-1.8,8.3,1.2
				c2.4,3,7.2,5,7.2,5s25.6-6.7,26-6.9s3.3-2.7,3.3-2.7s0.1-2.6,3.6-5.9s2.3-4.8,2.3-4.8s16-20.8,16.2-21.1s23.8-11.8,23.8-11.8
				l24.9-20.4l24-4.5l-0.5-6.1l50.9-19.8l10.4-6.7l5-5.7c0,0,13.4-3.3,13.8-3.7c0.4-0.4,1.8-2.6,2.3-2.4s7.4-1.6,7.4-1.6l11.9-1.1"
				/>
			<polyline class="st0" points="355.8,757.2 351.3,757.5 339.4,759.7 333.1,762.9 329.2,761.9 			"/>
		</g>
	</g>
</g>
<line class="st0" x1="579.9" y1="394.3" x2="557.8" y2="385.9"/>
</svg>
