<?xml version="1.0" encoding="utf-8"?>
<!-- Generator: Adobe Illustrator 28.0.0, SVG Export Plug-In . SVG Version: 6.00 Build 0)  -->
<svg version="1.1" id="Layer_1" xmlns="http://www.w3.org/2000/svg" xmlns:xlink="http://www.w3.org/1999/xlink" x="0px" y="0px"
	 viewBox="0 0 1111 1080" style="enable-background:new 0 0 1111 1080;" xml:space="preserve">
<style type="text/css">
	.st0{fill:none;}
</style>
<g id="principales">
	<g>
		<polyline class="st0" points="457.3,47.9 456.4,52.7 475.7,77.1 549.4,281.6 		"/>
		<polyline class="st0" points="839.7,278.9 834.6,291.7 811.8,299 721.4,366.2 668.3,392.7 		"/>
		<polyline class="st0" points="644.1,409.6 952.4,592.8 1042.5,665.4 		"/>
		<path class="st0" d="M1039.4,666.4c0,0,9,2.1,6.8-1s-14.9,3.8-14.9,3.8L980.4,693l-13.5,20.3l-113.8,13.6l-111.5-52.8"/>
		<path class="st0" d="M385.8,518l8.8,21.5l-11.1,38.4l-1.8,36.6l1.9,5.7l-0.7,8.8l3.8,8l-2.3,18.9L373,668.4l-14.4,7L345,731
			l-17.3,20.7l-14.6,28.8l-28.8,22.2c0,0-7.8,6.6,4.2,34.8s36.7,10.8,78.4,32c0,0,56.3-4.9,61.1-3.8c4.8,1.1,55.5,3,66.2,12.7
			s30.6,53.9,55,61.2s58.7-6.9,58.7-6.9l116.6-51.9l92.7-120.2l0.1-25.6"/>
		<polyline class="st0" points="439.1,432.6 528.7,388.6 562.9,358 590.4,323.8 		"/>
		<polyline class="st0" points="588.8,423.8 530.9,418.3 432.6,443.6 389.5,526.1 		"/>
		<path class="st0" d="M430.5,446.2l0.3-14.1l32.3-55l8.8-17.9l5.1-22.7l-0.2-8.3l5-25.9l15.9-16.4l25.7,3.6l35.6-8.1l23.6,1.2
			c0,0,19.3,11.2,19.4,11.8s35.4,13.6,35.4,13.6l24.6,17.6l30.2,12l23.7-8.2l23.8,21.7l5.7,17.6c0,0-3.7,18.6-4.2,19.4
			S703,455.9,703,455.9l-77.2-18.5l-111.3-13.2"/>
		<polyline class="st0" points="848.1,429.6 845.2,439.2 803.1,442.7 707.6,596.4 702.9,607.2 677.8,624.9 612.5,629 580.9,675 
			456.9,667.1 396.4,616.1 		"/>
		<path class="st0" d="M413.4,569.1l4.2-8.9l8.4-32.9l79.4-24.5l86.9,3.8c0,0,111.8-23.8,113.1-22.7s63.8,8.3,63.8,8.3l5.9-5.3"/>
		<polyline class="st0" points="670.4,394.4 697.6,436.2 700.2,456.3 		"/>
		<polyline class="st0" points="680.2,621.3 689,611.3 706,487.9 700.6,460.2 704.6,453.4 		"/>
		<polyline class="st0" points="683.2,114.7 676,119.2 666.4,132.4 637.2,147.7 629.2,185.4 535.3,303.8 		"/>
		<path class="st0" d="M318.5,123.7c0.3,0.6,15.8,16.8,15.8,16.8l23.4,28.5l15.6,23.6l19.7,18.5l-4.5,82.7L396,318l41.9,54.3
			l19.4,13"/>
		<polyline class="st0" points="296.9,321.5 312.9,335.6 320.5,336.6 335.2,344.2 337.6,347.8 370,361.5 381,363.1 388.4,372.2 
			397.4,375.8 418.4,383.6 448.8,400.2 		"/>
		<polyline class="st0" points="469.8,966.2 487.1,936.9 533,904.8 567.7,799.1 545.8,723.7 540.2,694.2 546.3,669.6 		"/>
		<path class="st0" d="M437.7,522.4l-6.9-3.9l-50.1-0.9l1-23.2l-6.8-9.2l2.8-21.4l-6.5-13.3l-4.2-12.9l-8.3-3.3l-14.8-18.7
			l-13.2-11.1c0,0-17.7-15.3-17.3-15.9s-15.5-27.1-15.5-27.1l-11.8-10.7c0,0,1.2-25,1.4-25.2"/>
		<polyline class="st0" points="781,575.9 717.6,531.2 651.6,523.4 596.5,524.5 589.4,529.9 560.1,672.5 		"/>
	</g>
</g>
</svg>
